HIERARCHY
ROOT mixamorig:Hips
{
	OFFSET -0.000008 104.274872 1.554316
	CHANNELS 6 Xposition Yposition Zposition Xrotation Yrotation Zrotation
	JOINT mixamorig:Spine
	{
		OFFSET -0.000005 10.181595 0.131519
		CHANNELS 6 Xposition Yposition Zposition Xrotation Yrotation Zrotation
		JOINT mixamorig:Spine1
		{
			OFFSET -0.000000 9.893959 -1.470707
			CHANNELS 6 Xposition Yposition Zposition Xrotation Yrotation Zrotation
			JOINT mixamorig:Spine2
			{
				OFFSET -0.000000 9.220757 -1.370641
				CHANNELS 6 Xposition Yposition Zposition Xrotation Yrotation Zrotation
				JOINT mixamorig:Neck
				{
					OFFSET 0.000001 16.740417 -2.049036
					CHANNELS 6 Xposition Yposition Zposition Xrotation Yrotation Zrotation
					JOINT mixamorig:Head
					{
						OFFSET 0.000000 9.617874 1.685006
						CHANNELS 6 Xposition Yposition Zposition Xrotation Yrotation Zrotation
						JOINT mixamorig:HeadTop_End
						{
							OFFSET 0.000002 22.037354 7.501101
							CHANNELS 6 Xposition Yposition Zposition Xrotation Yrotation Zrotation
							End Site
							{
								OFFSET 0.000168 2310.654297 -282.823242
							}
						}
					}
				}
				JOINT mixamorig:RightShoulder
				{
					OFFSET -4.569970 11.014908 -2.160885
					CHANNELS 6 Xposition Yposition Zposition Xrotation Yrotation Zrotation
					JOINT mixamorig:RightArm
					{
						OFFSET -10.592851 -0.524811 -2.232101
						CHANNELS 6 Xposition Yposition Zposition Xrotation Yrotation Zrotation
						JOINT mixamorig:RightForeArm
						{
							OFFSET -27.841511 0.000031 -0.000004
							CHANNELS 6 Xposition Yposition Zposition Xrotation Yrotation Zrotation
							JOINT mixamorig:RightHand
							{
								OFFSET -28.328831 -0.000015 0.000015
								CHANNELS 6 Xposition Yposition Zposition Xrotation Yrotation Zrotation
								JOINT mixamorig:RightHandThumb1
								{
									OFFSET -2.464806 -1.573990 2.681852
									CHANNELS 6 Xposition Yposition Zposition Xrotation Yrotation Zrotation
									JOINT mixamorig:RightHandThumb2
									{
										OFFSET -3.215179 -1.872803 1.924282
										CHANNELS 6 Xposition Yposition Zposition Xrotation Yrotation Zrotation
										JOINT mixamorig:RightHandThumb3
										{
											OFFSET -2.654831 -1.527969 1.512609
											CHANNELS 6 Xposition Yposition Zposition Xrotation Yrotation Zrotation
											JOINT mixamorig:RightHandThumb4
											{
												OFFSET -2.018814 -1.152008 1.108052
												CHANNELS 6 Xposition Yposition Zposition Xrotation Yrotation Zrotation
												End Site
												{
													OFFSET -188.809540 -114.533607 132.431396
												}
											}
										}
									}
								}
								JOINT mixamorig:RightHandIndex1
								{
									OFFSET -9.108284 -0.517868 2.259835
									CHANNELS 6 Xposition Yposition Zposition Xrotation Yrotation Zrotation
									JOINT mixamorig:RightHandIndex2
									{
										OFFSET -3.699989 0.000000 0.001215
										CHANNELS 6 Xposition Yposition Zposition Xrotation Yrotation Zrotation
										JOINT mixamorig:RightHandIndex3
										{
											OFFSET -2.850006 0.000031 -0.000522
											CHANNELS 6 Xposition Yposition Zposition Xrotation Yrotation Zrotation
											JOINT mixamorig:RightHandIndex4
											{
												OFFSET -2.772186 -0.000015 -0.000020
												CHANNELS 6 Xposition Yposition Zposition Xrotation Yrotation Zrotation
												End Site
												{
													OFFSET -277.218445 0.000000 -0.050231
												}
											}
										}
									}
								}
								JOINT mixamorig:RightHandMiddle1
								{
									OFFSET -9.532516 -0.000031 -0.000023
									CHANNELS 6 Xposition Yposition Zposition Xrotation Yrotation Zrotation
									JOINT mixamorig:RightHandMiddle2
									{
										OFFSET -3.700005 -0.000015 0.003713
										CHANNELS 6 Xposition Yposition Zposition Xrotation Yrotation Zrotation
										JOINT mixamorig:RightHandMiddle3
										{
											OFFSET -2.949974 0.000015 -0.002054
											CHANNELS 6 Xposition Yposition Zposition Xrotation Yrotation Zrotation
											JOINT mixamorig:RightHandMiddle4
											{
												OFFSET -2.946640 0.000000 -0.000156
												CHANNELS 6 Xposition Yposition Zposition Xrotation Yrotation Zrotation
												End Site
												{
													OFFSET -294.664337 0.000000 -0.113670
												}
											}
										}
									}
								}
								JOINT mixamorig:RightHandRing1
								{
									OFFSET -9.103600 -0.043076 -1.865134
									CHANNELS 6 Xposition Yposition Zposition Xrotation Yrotation Zrotation
									JOINT mixamorig:RightHandRing2
									{
										OFFSET -3.379288 0.000000 -0.001055
										CHANNELS 6 Xposition Yposition Zposition Xrotation Yrotation Zrotation
										JOINT mixamorig:RightHandRing3
										{
											OFFSET -2.889687 -0.000015 0.000379
											CHANNELS 6 Xposition Yposition Zposition Xrotation Yrotation Zrotation
											JOINT mixamorig:RightHandRing4
											{
												OFFSET -2.638809 -0.000015 0.000941
												CHANNELS 6 Xposition Yposition Zposition Xrotation Yrotation Zrotation
												End Site
												{
													OFFSET -263.880371 0.000000 0.516020
												}
											}
										}
									}
								}
								JOINT mixamorig:RightHandPinky1
								{
									OFFSET -8.076683 -0.486710 -3.806280
									CHANNELS 6 Xposition Yposition Zposition Xrotation Yrotation Zrotation
									JOINT mixamorig:RightHandPinky2
									{
										OFFSET -3.600014 -0.000015 -0.003747
										CHANNELS 6 Xposition Yposition Zposition Xrotation Yrotation Zrotation
										JOINT mixamorig:RightHandPinky3
										{
											OFFSET -2.099983 0.000000 -0.005739
											CHANNELS 6 Xposition Yposition Zposition Xrotation Yrotation Zrotation
											JOINT mixamorig:RightHandPinky4
											{
												OFFSET -2.115768 -0.000031 -0.003680
												CHANNELS 6 Xposition Yposition Zposition Xrotation Yrotation Zrotation
												End Site
												{
													OFFSET -211.577087 0.000000 -0.350686
												}
											}
										}
									}
								}
							}
						}
					}
				}
				JOINT mixamorig:LeftShoulder
				{
					OFFSET 4.570447 11.014725 -2.160855
					CHANNELS 6 Xposition Yposition Zposition Xrotation Yrotation Zrotation
					JOINT mixamorig:LeftArm
					{
						OFFSET 10.592371 -0.524597 -2.232119
						CHANNELS 6 Xposition Yposition Zposition Xrotation Yrotation Zrotation
						JOINT mixamorig:LeftForeArm
						{
							OFFSET 27.841532 -0.000031 0.000026
							CHANNELS 6 Xposition Yposition Zposition Xrotation Yrotation Zrotation
							JOINT mixamorig:LeftHand
							{
								OFFSET 28.328846 -0.000061 0.000022
								CHANNELS 6 Xposition Yposition Zposition Xrotation Yrotation Zrotation
								JOINT mixamorig:LeftHandThumb1
								{
									OFFSET 2.466141 -1.576172 2.681732
									CHANNELS 6 Xposition Yposition Zposition Xrotation Yrotation Zrotation
									JOINT mixamorig:LeftHandThumb2
									{
										OFFSET 3.217812 -1.872070 1.916482
										CHANNELS 6 Xposition Yposition Zposition Xrotation Yrotation Zrotation
										JOINT mixamorig:LeftHandThumb3
										{
											OFFSET 2.656029 -1.528778 1.514513
											CHANNELS 6 Xposition Yposition Zposition Xrotation Yrotation Zrotation
											JOINT mixamorig:LeftHandThumb4
											{
												OFFSET 2.020889 -1.154053 1.115139
												CHANNELS 6 Xposition Yposition Zposition Xrotation Yrotation Zrotation
												End Site
												{
													OFFSET 190.885437 -115.081749 130.048782
												}
											}
										}
									}
								}
								JOINT mixamorig:LeftHandIndex1
								{
									OFFSET 9.109314 -0.518021 2.259871
									CHANNELS 6 Xposition Yposition Zposition Xrotation Yrotation Zrotation
									JOINT mixamorig:LeftHandIndex2
									{
										OFFSET 3.699989 0.000000 -0.000322
										CHANNELS 6 Xposition Yposition Zposition Xrotation Yrotation Zrotation
										JOINT mixamorig:LeftHandIndex3
										{
											OFFSET 2.850006 0.000000 0.000352
											CHANNELS 6 Xposition Yposition Zposition Xrotation Yrotation Zrotation
											JOINT mixamorig:LeftHandIndex4
											{
												OFFSET 2.774864 -0.000031 -0.000027
												CHANNELS 6 Xposition Yposition Zposition Xrotation Yrotation Zrotation
												End Site
												{
													OFFSET 277.486267 0.000000 -0.009857
												}
											}
										}
									}
								}
								JOINT mixamorig:LeftHandMiddle1
								{
									OFFSET 9.533394 0.000061 0.000044
									CHANNELS 6 Xposition Yposition Zposition Xrotation Yrotation Zrotation
									JOINT mixamorig:LeftHandMiddle2
									{
										OFFSET 3.699989 -0.000015 -0.000231
										CHANNELS 6 Xposition Yposition Zposition Xrotation Yrotation Zrotation
										JOINT mixamorig:LeftHandMiddle3
										{
											OFFSET 2.949997 -0.000015 -0.000059
											CHANNELS 6 Xposition Yposition Zposition Xrotation Yrotation Zrotation
											JOINT mixamorig:LeftHandMiddle4
											{
												OFFSET 2.952896 0.000031 0.000063
												CHANNELS 6 Xposition Yposition Zposition Xrotation Yrotation Zrotation
												End Site
												{
													OFFSET 295.289337 0.000000 0.022810
												}
											}
										}
									}
								}
								JOINT mixamorig:LeftHandRing1
								{
									OFFSET 9.104523 -0.042999 -1.865074
									CHANNELS 6 Xposition Yposition Zposition Xrotation Yrotation Zrotation
									JOINT mixamorig:LeftHandRing2
									{
										OFFSET 3.150009 -0.000031 0.000043
										CHANNELS 6 Xposition Yposition Zposition Xrotation Yrotation Zrotation
										JOINT mixamorig:LeftHandRing3
										{
											OFFSET 2.949982 -0.000015 0.000040
											CHANNELS 6 Xposition Yposition Zposition Xrotation Yrotation Zrotation
											JOINT mixamorig:LeftHandRing4
											{
												OFFSET 2.644348 0.000000 0.000057
												CHANNELS 6 Xposition Yposition Zposition Xrotation Yrotation Zrotation
												End Site
												{
													OFFSET 264.434631 0.000000 0.012105
												}
											}
										}
									}
								}
								JOINT mixamorig:LeftHandPinky1
								{
									OFFSET 8.077789 -0.486847 -3.806259
									CHANNELS 6 Xposition Yposition Zposition Xrotation Yrotation Zrotation
									JOINT mixamorig:LeftHandPinky2
									{
										OFFSET 3.599953 0.000031 0.014727
										CHANNELS 6 Xposition Yposition Zposition Xrotation Yrotation Zrotation
										JOINT mixamorig:LeftHandPinky3
										{
											OFFSET 2.100021 0.000015 0.007705
											CHANNELS 6 Xposition Yposition Zposition Xrotation Yrotation Zrotation
											JOINT mixamorig:LeftHandPinky4
											{
												OFFSET 2.125504 0.000031 0.007517
												CHANNELS 6 Xposition Yposition Zposition Xrotation Yrotation Zrotation
												End Site
												{
													OFFSET 212.550781 0.000000 0.625752
												}
											}
										}
									}
								}
							}
						}
					}
				}
			}
		}
	}
	JOINT mixamorig:RightUpLeg
	{
		OFFSET -8.207787 -6.751648 -1.599560
		CHANNELS 6 Xposition Yposition Zposition Xrotation Yrotation Zrotation
		JOINT mixamorig:RightLeg
		{
			OFFSET -0.000002 -44.370117 0.345942
			CHANNELS 6 Xposition Yposition Zposition Xrotation Yrotation Zrotation
			JOINT mixamorig:RightFoot
			{
				OFFSET 0.000003 -44.423679 -3.043532
				CHANNELS 6 Xposition Yposition Zposition Xrotation Yrotation Zrotation
				JOINT mixamorig:RightToeBase
				{
					OFFSET -0.000002 -8.728671 10.710558
					CHANNELS 6 Xposition Yposition Zposition Xrotation Yrotation Zrotation
					JOINT mixamorig:RightToe_End
					{
						OFFSET -0.000001 -0.000679 9.278119
						CHANNELS 6 Xposition Yposition Zposition Xrotation Yrotation Zrotation
						End Site
						{
							OFFSET 0.000000 -0.067690 927.812134
						}
					}
				}
			}
		}
	}
	JOINT mixamorig:LeftUpLeg
	{
		OFFSET 8.207793 -6.751686 -1.599556
		CHANNELS 6 Xposition Yposition Zposition Xrotation Yrotation Zrotation
		JOINT mixamorig:LeftLeg
		{
			OFFSET -0.000004 -44.370014 0.346954
			CHANNELS 6 Xposition Yposition Zposition Xrotation Yrotation Zrotation
			JOINT mixamorig:LeftFoot
			{
				OFFSET -0.000001 -44.423672 -3.044401
				CHANNELS 6 Xposition Yposition Zposition Xrotation Yrotation Zrotation
				JOINT mixamorig:LeftToeBase
				{
					OFFSET -0.000002 -8.728669 10.710558
					CHANNELS 6 Xposition Yposition Zposition Xrotation Yrotation Zrotation
					JOINT mixamorig:LeftToe_End
					{
						OFFSET -0.000003 -0.000679 9.278133
						CHANNELS 6 Xposition Yposition Zposition Xrotation Yrotation Zrotation
						End Site
						{
							OFFSET 0.000000 -0.068021 927.813477
						}
					}
				}
			}
		}
	}
}
MOTION
Frames: 3
Frame Time: 0.033333
0.000006 104.270477 1.554256 0.000010 0.000003 -0.000113 -0.000005 10.181587 0.131522 0.000001 -0.000003 0.000084 -0.000000 9.893967 -1.470711 0.000001 0.000000 -0.000000 -0.000000 9.220802 -1.370642 0.000000 -0.000000 -0.000000 0.000001 16.740433 -2.049030 0.000000 -0.000000 -0.000000 0.000000 9.617859 1.685014 0.000000 0.000000 0.000000 0.000002 22.037384 7.501101 0.000000 -0.000000 0.000000 -4.569968 11.014880 -2.160881 0.000008 0.000001 -0.000038 -10.592800 -0.524830 -2.231762 69.923126 60.857238 -44.655210 -27.841494 0.000011 0.000592 33.882407 103.713260 -42.400291 -28.328829 -0.000008 0.000020 -0.000322 -0.000043 0.000007 -2.464482 -1.574152 2.682254 -148.183153 -53.434759 -89.689891 -3.214690 -1.872717 1.924749 145.718534 -31.042008 -168.311721 -2.654634 -1.527645 1.513000 127.153110 12.855285 117.481125 -2.018830 -1.151993 1.108059 0.000000 -0.000005 0.000000 -9.108378 -0.517666 2.260310 140.805156 14.503907 -39.465035 -3.700080 0.000085 0.001311 194.418343 156.612085 -182.992748 -2.850020 -0.000070 -0.000463 332.485795 -0.288935 -0.070935 -2.772146 0.000000 -0.000024 0.000001 0.000002 -0.000001 -9.532564 0.000216 0.000454 142.833462 9.554135 -28.326990 -3.699925 -0.000099 0.003713 340.326634 -16.861674 -2.969963 -2.949948 -0.000143 -0.001982 324.980237 -9.854191 -3.118259 -2.946629 0.000013 -0.000166 0.000000 -0.000001 0.000002 -9.103649 -0.042787 -1.864656 145.473809 5.002262 -15.872523 -3.379058 -0.000120 -0.001039 333.456665 -39.312844 -9.622954 -2.889591 -0.000137 0.000399 327.120299 -22.920769 -6.826278 -2.638828 -0.000022 0.000911 -0.000000 -0.000002 -0.000002 -8.076656 -0.486396 -3.805795 149.100284 -1.452387 5.665411 -3.599784 -0.000216 -0.003695 321.268985 -39.976428 -14.790899 -2.099864 -0.000161 -0.005735 325.190060 -20.568415 -6.611216 -2.115756 -0.000042 -0.003686 -0.000003 -0.000001 -0.000005 4.570446 11.014691 -2.160851 -0.000018 0.000010 -0.000021 10.592518 -0.524543 -2.232387 60.718073 -65.137909 41.026453 27.841784 -0.000075 -0.000102 210.890027 -74.697626 219.805050 28.328833 -0.000030 0.000021 0.000019 -0.000089 -0.000000 2.466029 -1.576158 2.681896 -22.203842 124.944459 -24.995036 3.217714 -1.872065 1.916524 195.049043 61.626461 -245.097131 2.655976 -1.528829 1.514591 220.334307 55.260226 85.919654 2.020899 -1.154081 1.115142 0.000001 0.000005 0.000002 9.109148 -0.517665 2.260039 205.122083 -12.252094 308.577292 3.699783 0.000257 -0.000165 202.822645 -17.692801 284.721435 2.849771 0.000319 0.000494 19.880003 -166.191056 110.713767 2.774877 -0.000017 -0.000033 0.000002 0.000000 0.000001 9.533271 0.000413 0.000206 205.583093 -9.180728 -38.933256 3.699788 0.000304 -0.000075 203.424794 -15.044450 -64.986894 2.949858 0.000313 0.000118 -155.629043 -11.806275 -51.175633 2.952868 -0.000045 0.000078 0.000003 -0.000000 -0.000001 9.104403 -0.042645 -1.864910 205.863418 -8.943311 -37.620702 3.149875 0.000434 0.000210 204.483392 -7.991018 -35.693619 2.949875 0.000417 0.000188 -157.162188 -5.483668 -26.682950 2.644321 0.000031 0.000062 -0.000000 0.000000 -0.000001 8.077701 -0.486473 -3.806096 205.987181 -5.135030 -23.523020 3.599956 0.000394 0.014886 208.164809 0.179163 -0.955379 2.099999 0.000370 0.007871 206.710334 0.605960 0.831495 2.125497 0.000000 0.007507 -0.000003 -0.000001 -0.000001 -8.207786 -6.751667 -1.599560 -0.077001 -0.000003 0.000080 -0.000002 -44.370110 0.345938 0.153719 -0.000000 -0.000000 0.000000 -44.423679 -3.043532 -0.076700 0.000000 -0.000002 -0.000006 -8.728667 10.710559 -0.000009 -0.000000 -0.000000 -0.000001 -0.000679 9.278123 0.000000 -0.000000 -0.000000 8.207792 -6.751710 -1.599556 -0.074518 -0.000003 0.000081 -0.000002 -44.370014 0.346960 0.148822 0.000002 0.000000 -0.000001 -44.423664 -3.044403 -0.074314 0.000000 -0.000002 -0.000004 -8.728671 10.710558 0.000007 -0.000000 -0.000000 0.000000 -0.000680 9.278137 -0.000000 0.000000 -0.000001 
0.000006 104.270477 1.554256 0.000010 0.000003 -0.000113 -0.000005 10.181587 0.131522 0.000001 -0.000003 0.000084 -0.000000 9.893967 -1.470711 0.000001 0.000000 -0.000000 -0.000000 9.220802 -1.370642 0.000000 -0.000000 -0.000000 0.000001 16.740433 -2.049030 0.000000 -0.000000 -0.000000 0.000000 9.617859 1.685014 0.000000 0.000000 0.000000 0.000002 22.037384 7.501101 0.000000 -0.000000 0.000000 -4.569968 11.014880 -2.160881 0.000008 0.000001 -0.000038 -10.592802 -0.524840 -2.231767 70.679993 60.486885 -44.922301 -27.841476 0.000010 0.000601 32.884991 104.698576 -41.865996 -28.328831 0.000021 0.000025 -0.000322 -0.000044 0.000008 -2.464458 -1.574129 2.682265 -154.324422 -54.669910 -96.700193 -3.214701 -1.872672 1.924734 141.076437 -27.295854 -176.472991 -2.654675 -1.527613 1.512995 128.510214 19.024691 104.727612 -2.018835 -1.151984 1.108056 -0.000001 -0.000002 0.000005 -9.108371 -0.517657 2.260319 140.169825 14.151475 -37.951946 -3.700114 0.000187 0.001353 222.924302 155.378648 -189.795179 -2.849997 -0.000048 -0.000489 340.140798 -1.986869 -0.348007 -2.772176 -0.000013 -0.000018 0.000000 -0.000002 -0.000001 -9.532569 0.000199 0.000447 140.809022 9.345691 -26.247249 -3.699879 -0.000068 0.003717 341.992326 -23.369183 -3.782755 -2.949936 -0.000150 -0.001982 323.521144 -11.200002 -3.704047 -2.946626 -0.000001 -0.000149 -0.000005 -0.000001 0.000001 -9.103649 -0.042781 -1.864661 144.504468 4.821613 -14.862241 -3.379038 -0.000115 -0.001026 333.122833 -44.403811 -11.130457 -2.889603 -0.000139 0.000393 326.912689 -24.240900 -7.278997 -2.638816 -0.000013 0.000946 0.000002 -0.000001 -0.000003 -8.076647 -0.486383 -3.805800 147.014931 -1.333713 4.891850 -3.599759 -0.000225 -0.003698 317.097953 -44.918213 -18.696419 -2.099863 -0.000171 -0.005721 323.632668 -21.408989 -7.211061 -2.115762 -0.000054 -0.003672 0.000003 0.000003 -0.000003 4.570446 11.014691 -2.160851 -0.000018 0.000010 -0.000021 10.592518 -0.524534 -2.232393 63.452000 -63.954469 42.211047 27.841795 -0.000057 -0.000103 207.097797 -70.817375 217.451899 28.328831 -0.000014 0.000034 0.000021 -0.000089 0.000000 2.466039 -1.576201 2.681873 -11.612769 119.698833 -36.516418 3.217721 -1.872061 1.916537 198.938439 60.377950 -250.168956 2.655982 -1.528828 1.514617 218.727055 53.940705 86.620958 2.020903 -1.154072 1.115136 -0.000003 -0.000000 0.000001 9.109069 -0.517752 2.259997 196.327941 -13.428579 281.260469 3.699713 0.000223 -0.000185 196.507684 -16.475077 270.116660 2.849725 0.000289 0.000473 13.578577 -166.869868 91.941354 2.774891 -0.000044 -0.000019 0.000003 -0.000001 0.000001 9.533168 0.000355 0.000170 195.751077 -11.088788 -70.109371 3.699752 0.000279 -0.000088 197.310464 -14.583555 -80.099753 2.949792 0.000302 0.000081 -161.950561 -11.815880 -66.174247 2.952855 -0.000024 0.000064 0.000002 -0.000003 -0.000002 9.104321 -0.042687 -1.864935 198.610918 -10.591256 -58.995800 3.149776 0.000417 0.000199 199.653328 -10.103470 -54.078965 2.949799 0.000446 0.000179 -161.162316 -7.793166 -44.650449 2.644318 0.000032 0.000061 0.000002 -0.000001 -0.000000 8.077662 -0.486518 -3.806102 205.514368 -8.016357 -35.638305 3.599881 0.000407 0.014888 205.990336 -4.393614 -20.315867 2.099923 0.000420 0.007859 204.469171 -4.059546 -20.043655 2.125490 0.000001 0.007509 -0.000002 0.000001 -0.000001 -8.207786 -6.751667 -1.599560 -0.077001 -0.000003 0.000080 -0.000002 -44.370110 0.345938 0.153719 -0.000000 -0.000000 0.000000 -44.423679 -3.043532 -0.076700 0.000000 -0.000002 -0.000006 -8.728667 10.710559 -0.000009 -0.000000 -0.000000 -0.000001 -0.000679 9.278123 0.000000 -0.000000 -0.000000 8.207792 -6.751710 -1.599556 -0.074518 -0.000003 0.000081 -0.000002 -44.370014 0.346960 0.148822 0.000002 0.000000 -0.000001 -44.423664 -3.044403 -0.074314 0.000000 -0.000002 -0.000004 -8.728671 10.710558 0.000007 -0.000000 -0.000000 0.000000 -0.000680 9.278137 -0.000000 0.000000 -0.000001 
0.000006 104.270477 1.554256 0.000010 0.000003 -0.000113 -0.000005 10.181587 0.131522 0.000001 -0.000003 0.000084 -0.000000 9.893967 -1.470711 0.000001 0.000000 -0.000000 -0.000000 9.220802 -1.370642 0.000000 -0.000000 -0.000000 0.000001 16.740433 -2.049030 0.000000 -0.000000 -0.000000 0.000000 9.617859 1.685014 0.000000 0.000000 0.000000 0.000002 22.037384 7.501101 0.000000 -0.000000 0.000000 -4.569968 11.014880 -2.160881 0.000008 0.000001 -0.000038 -10.592795 -0.524841 -2.231760 71.736848 61.574948 -46.613159 -27.841480 0.000003 0.000592 32.088259 104.179796 -40.536090 -28.328836 0.000021 0.000012 -0.000325 -0.000044 0.000007 -2.464439 -1.574109 2.682263 -161.965655 -56.197560 -105.802349 -3.214696 -1.872685 1.924720 140.656135 -27.453322 -177.390477 -2.654661 -1.527630 1.512981 127.827619 16.929951 108.882730 -2.018839 -1.151999 1.108056 -0.000004 -0.000002 0.000007 -9.108363 -0.517651 2.260298 138.308148 13.942723 -35.727111 -3.700083 0.000155 0.001302 211.173193 161.121458 -185.301639 -2.850019 -0.000059 -0.000490 339.628752 -1.948076 -0.350201 -2.772145 -0.000009 -0.000020 0.000006 -0.000004 0.000002 -9.532563 0.000200 0.000432 139.271724 8.971638 -24.235226 -3.699887 -0.000035 0.003694 350.571426 -22.415320 -1.894504 -2.949938 -0.000151 -0.001968 324.445788 -11.194668 -3.602122 -2.946639 -0.000000 -0.000164 -0.000001 0.000000 -0.000000 -9.103643 -0.042768 -1.864685 140.752208 4.882223 -13.524517 -3.379042 -0.000106 -0.001043 337.358998 -42.493527 -8.892969 -2.889587 -0.000151 0.000417 323.760447 -24.313295 -8.041947 -2.638819 -0.000027 0.000945 -0.000000 -0.000000 0.000001 -8.076649 -0.486364 -3.805822 143.912810 -1.607943 5.285223 -3.599765 -0.000189 -0.003715 324.010213 -43.839272 -15.114157 -2.099884 -0.000179 -0.005714 321.327889 -21.441827 -7.711809 -2.115784 -0.000056 -0.003686 -0.000001 0.000002 -0.000006 4.570446 11.014691 -2.160851 -0.000018 0.000010 -0.000021 10.592524 -0.524543 -2.232394 65.668417 -63.919007 43.859066 27.841785 -0.000049 -0.000120 207.359967 -73.086712 216.362662 28.328836 -0.000029 0.000030 0.000020 -0.000089 0.000001 2.465986 -1.576192 2.681871 -31.220074 127.815761 -13.232541 3.217753 -1.872058 1.916529 204.638751 58.399688 -257.571679 2.655989 -1.528806 1.514617 222.803653 51.518252 81.177481 2.020894 -1.154064 1.115145 -0.000001 -0.000001 0.000004 9.109043 -0.517835 2.259995 191.435422 -15.358690 253.178665 3.699722 0.000150 -0.000211 189.700936 -15.931818 242.497452 2.849719 0.000189 0.000458 8.969912 -166.698253 67.853913 2.774871 -0.000045 -0.000029 0.000004 -0.000000 0.000000 9.533106 0.000260 0.000155 189.836051 -12.484029 -103.624857 3.699708 0.000193 -0.000112 190.510956 -14.522311 -108.350849 2.949740 0.000228 0.000059 -168.608547 -11.567047 -90.881882 2.952864 -0.000009 0.000062 -0.000003 -0.000001 0.000001 9.104294 -0.042735 -1.864947 193.083383 -11.141297 -80.766229 3.149725 0.000383 0.000173 194.014583 -10.501576 -73.571854 2.949699 0.000464 0.000175 -166.386181 -8.177598 -61.835752 2.644323 0.000027 0.000055 -0.000004 -0.000001 -0.000002 8.077602 -0.486534 -3.806109 201.884696 -10.577683 -52.129312 3.599807 0.000426 0.014873 201.410121 -6.475722 -34.698109 2.099869 0.000446 0.007841 200.361345 -5.282660 -30.329831 2.125519 -0.000015 0.007516 -0.000002 0.000003 -0.000000 -8.207786 -6.751667 -1.599560 -0.077001 -0.000003 0.000080 -0.000002 -44.370110 0.345938 0.153719 -0.000000 -0.000000 0.000000 -44.423679 -3.043532 -0.076700 0.000000 -0.000002 -0.000006 -8.728667 10.710559 -0.000009 -0.000000 -0.000000 -0.000001 -0.000679 9.278123 0.000000 -0.000000 -0.000000 8.207792 -6.751710 -1.599556 -0.074518 -0.000003 0.000081 -0.000002 -44.370014 0.346960 0.148822 0.000002 0.000000 -0.000001 -44.423664 -3.044403 -0.074314 0.000000 -0.000002 -0.000004 -8.728671 10.710558 0.000007 -0.000000 -0.000000 0.000000 -0.000680 9.278137 -0.000000 0.000000 -0.000001 
